<svg xmlns="http://www.w3.org/2000/svg" width="180" height="180" viewBox="0 0 180 180" fill="none"><path d="M98.0015 57.4738L121.811 0H98.9773L90.0001 29.176L81.0229 0H58.1895L81.9986 57.4738H98.0015Z" fill="#FFAD15"></path><path d="M81.9986 122.526L58.1895 180H81.0229L90.0001 150.824L98.9773 180H121.811L98.0015 122.526H81.9986Z" fill="#FFAD15"></path><path d="M57.4738 81.9986L0 58.1895V81.0229L29.176 90.0001L0 98.9773V121.811L57.4738 98.0015V81.9986Z" fill="#FFAD15"></path><path d="M180 58.1895L122.526 81.9986V98.0015L180 121.811V98.9773L150.824 90.0001L180 81.0229V58.1895Z" fill="#FFAD15"></path><path d="M61.3769 107.336L3.87061 131.178L20.0036 147.311L47.0003 133L32.6888 159.996L48.8218 176.129L72.6635 118.623L61.3769 107.336Z" fill="#FFAD15"></path><path d="M118.624 72.6635L176.13 48.8218L159.997 32.6888L133 47.0003L147.312 20.0036L131.179 3.87061L107.337 61.3769L118.624 72.6635Z" fill="#FFAD15"></path><path d="M107.337 118.623L131.179 176.129L147.312 159.996L133 133L159.997 147.311L176.13 131.178L118.624 107.336L107.337 118.623Z" fill="#FFAD15"></path><path d="M72.6635 61.3769L48.8218 3.87061L32.6888 20.0036L47.0003 47.0003L20.0036 32.6888L3.87061 48.8218L61.3769 72.6635L72.6635 61.3769Z" fill="#FFAD15"></path></svg>