<svg xmlns="http://www.w3.org/2000/svg" width="100" height="100" viewBox="0 0 100 100" fill="none"><circle cx="50" cy="50" r="50" fill="#F3F3F3"></circle><path d="M54.1768 45.8223L48.4224 51.5767" stroke="#31752F" stroke-width="3.4375" stroke-linecap="round" stroke-linejoin="round"></path><path fill-rule="evenodd" clip-rule="evenodd" d="M54.0854 36.7447V45.9152H63.2559L72.4264 36.7447L66.312 33.6886L63.2559 27.5742L54.0854 36.7447Z" stroke="#31752F" stroke-width="3.4375" stroke-linecap="round" stroke-linejoin="round"></path><path d="M47.2072 32.1016C36.7492 32.7434 28.6603 41.5223 28.8748 51.9978C29.0892 62.4733 37.5306 70.9138 48.0062 71.1271C58.4817 71.3404 67.2597 63.2506 67.9004 52.7925" stroke="#31752F" stroke-width="3.4375" stroke-linecap="round" stroke-linejoin="round"></path><path d="M59.1517 52.7922C58.5353 58.4369 53.6648 62.6476 47.9904 62.4418C42.3159 62.236 37.7634 57.6834 37.5575 52.0089C37.3517 46.3345 41.5625 41.4641 47.2071 40.8477" stroke="#31752F" stroke-width="3.4375" stroke-linecap="round" stroke-linejoin="round"></path></svg>