<svg xmlns="http://www.w3.org/2000/svg" width="18" height="18" viewBox="0 0 18 18" fill="none"><circle cx="9" cy="9" r="9" fill="#177326"></circle><path d="M7.25884 12.5767C7.49316 12.811 7.87305 12.811 8.10737 12.5767L13.8955 6.78854C14.1299 6.55422 14.1299 6.17432 13.8955 5.94001L13.3804 5.42483C13.1461 5.19052 12.7662 5.19052 12.5318 5.42483L6.74366 11.213C6.50935 11.4473 6.50935 11.8272 6.74366 12.0615L7.25884 12.5767Z" fill="white"></path><path d="M4.11128 8.58843C3.87696 8.82275 3.87696 9.20264 4.11128 9.43696L7.23944 12.5651C7.47375 12.7994 7.85365 12.7994 8.08796 12.5651L8.60314 12.0499C8.83746 11.8156 8.83746 11.4357 8.60314 11.2014L5.47498 8.07325C5.24067 7.83894 4.86077 7.83894 4.62645 8.07325L4.11128 8.58843Z" fill="white"></path></svg>